<svg viewBox="0 0 32 32" fill="currentColor" width="32" height="32" xmlns="http://www.w3.org/2000/svg" xmlns:xlink="http://www.w3.org/1999/xlink">
    <path class="cls-1" d="M16 2a14 14 0 0 0-4.43 27.28c0.7 0.13 1-0.3 1-0.67s0-1.21 0-2.38c-3.89 0.84-4.71-1.88-4.71-1.88a3.71 3.71 0 0 0-1.62-2.05c-1.27-0.86 0.1-0.85 0.1-0.85a2.94 2.94 0 0 1 2.14 1.45 3 3 0 0 0 4.08 1.16 2.93 2.93 0 0 1 0.88-1.87c-3.1-0.36-6.37-1.56-6.37-6.92a5.4 5.4 0 0 1 1.44-3.76 5 5 0 0 1 0.14-3.7c0 0 1.17-0.38 3.85 1.43a13.3 13.3 0 0 1 7 0c2.67-1.81 3.84-1.43 3.84-1.43a5 5 0 0 1 0.14 3.7 5.4 5.4 0 0 1 1.44 3.76c0 5.38-3.27 6.56-6.39 6.91a3.33 3.33 0 0 1 0.95 2.59c0 1.87 0 3.38 0 3.84s0.25 0.81 1 0.67A14 14 0 0 0 16 2z" fill-rule="evenodd" />
</svg>